<?xml version="1.0" encoding="utf-8"?>
<!-- Generator: Adobe Illustrator 16.0.0, SVG Export Plug-In . SVG Version: 6.00 Build 0)  -->
<!DOCTYPE svg PUBLIC "-//W3C//DTD SVG 1.1//EN" "http://www.w3.org/Graphics/SVG/1.1/DTD/svg11.dtd">
<svg version="1.1" id="Layer_1" xmlns="http://www.w3.org/2000/svg" xmlns:xlink="http://www.w3.org/1999/xlink" x="0px" y="0px"
	 width="24px" height="24px" viewBox="0 0 24 24" enable-background="new 0 0 24 24" xml:space="preserve">
<path d="M23.047,16.949c-0.185,0.003-0.318,0.095-0.173,0.31c0.468,0.695,0.065,1.339-0.149,1.977
	c-0.104,0.309-0.365,0.233-0.481-0.016c-0.289-0.608-0.622-1.223-0.299-1.928c0.059-0.127,0.082-0.267-0.058-0.298
	c-0.431-0.097-0.912-0.177-1.293,0.019c-0.302,0.154,0.135,0.42,0.123,0.671c-0.011,0.215,0.074,0.432,0.111,0.648
	c0.144,0.873,0.409,1.637,1.54,1.656c-0.307,0.414-0.532,0.775-1.065,0.527c-0.176-0.081-0.365-0.002-0.46,0.182
	c-0.146,0.284,0.081,0.389,0.264,0.511c0.18,0.106,0.377,0.033,0.565,0.054c0.544-0.045,0.911-0.353,1.196-0.792
	c0.251-0.386,0.433-0.804,0.611-1.226c0.291-0.686,0.293-1.437,0.521-2.135c0-0.041,0-0.08,0-0.121
	C23.682,16.974,23.364,16.943,23.047,16.949z M4.324,13.52c0.532,0.342,1.124,0.506,1.741,0.613
	c0.274,0.047,0.341-0.029,0.358-0.295c0.055-0.859,0.121-1.719,0.219-2.575c0.035-0.309-0.142-0.476-0.285-0.688
	c-0.153-0.228-0.404-0.393-0.446-0.691c0.048-0.056,0.104-0.06,0.162-0.015c0.284,0.038,0.317,0.399,0.639,0.473
	C6.868,9.2,7.022,8.065,7.274,6.949c0.073-0.13,0.079-0.384,0.334-0.179c-0.314,1.557-0.358,3.14-0.47,4.717
	c-0.021,0.322,0.089,0.382,0.37,0.315c0.688-0.166,1.313-0.47,1.901-0.859c0.076,0.076,0.086,0.162,0.039,0.255
	c-0.562,0.503-1.218,0.847-1.937,1.049c-0.311,0.088-0.402,0.216-0.408,0.532c-0.057,2.303-0.109,4.606,0.221,6.896
	c0.042,0.286-0.046,0.392-0.293,0.332c-0.267-0.064-0.737,0.274-0.75-0.356c-0.029-1.463-0.046-2.927,0.069-4.384
	c0.037-0.478-0.069-0.667-0.542-0.761c-0.611-0.121-1.174-0.398-1.673-0.783C4.071,13.539,4.157,13.493,4.324,13.52L4.324,13.52z
	 M3.533,6.219c0,1.509,0,1.509-1.494,1.509c-1.534,0-1.534,0-1.534-1.538c0-0.142-0.001-0.281,0-0.421
	C0.51,4.901,0.699,4.709,1.56,4.707c0.342-0.001,0.682-0.002,1.023,0c0.754,0.005,0.943,0.201,0.95,0.971
	C3.534,5.858,3.533,6.039,3.533,6.219z M4.324,13.52c-0.063,0.068-0.125,0.135-0.187,0.204c-0.739,0.278-1.505,0.144-2.255,0.105
	c-0.387-0.02-0.522-0.396-0.527-0.766c-0.007-0.46-0.003-0.922-0.002-1.381c0.001-0.517,0.289-0.781,0.774-0.809
	c0.5-0.028,1.004-0.031,1.502-0.002c0.469,0.028,0.726,0.306,0.722,0.788C4.348,12.278,4.334,12.899,4.324,13.52z M11.217,18.647
	c0.055,0.317-0.124,0.713,0.191,1.043c0.128,0.134,0.047,0.283-0.132,0.292c-0.379,0.021-0.762,0.022-1.142,0.004
	c-0.208-0.009-0.273-0.127-0.152-0.326c0.362-0.596,0.136-1.243,0.14-1.868c0.002-0.223-0.171-0.352-0.409-0.35
	c-0.273,0-0.507,0.126-0.525,0.393c-0.042,0.605-0.213,1.227,0.108,1.814c0.021,0.035,0.054,0.064,0.067,0.098
	c0.05,0.122-0.034,0.22-0.121,0.227c-0.438,0.031-0.883,0.078-1.313-0.023c-0.143-0.035-0.073-0.184-0.031-0.303
	c0.269-0.721,0.362-1.449-0.063-2.144c-0.108-0.177-0.059-0.294,0.073-0.333c0.351-0.1,0.703-0.602,1.076-0.032
	c0.081,0.124,0.158,0.036,0.249-0.002c1.354-0.574,1.983-0.164,1.983,1.285c0,0.061,0,0.12,0,0.227L11.217,18.647z M9.449,11.197
	c-0.013-0.085-0.025-0.17-0.039-0.256c0.007-0.439,0.016-0.88,0.018-1.321C9.433,9.152,9.67,8.916,10.13,8.909
	c0.422-0.006,0.843-0.002,1.264,0.001c0.078,0.001,0.172-0.002,0.234,0.036c0.825,0.503,0.323,1.308,0.413,1.97
	c0.058,0.436-0.309,0.647-0.716,0.613c-0.633-0.054-1.338,0.255-1.877-0.333L9.449,11.197z M5.415,8.699
	C4.014,8.669,4.014,8.669,4.019,7.241c0.003-0.848,0.134-0.982,0.965-0.986c1.539-0.009,1.508-0.009,1.537,1.517
	c0.013,0.687-0.319,0.923-0.905,1C5.528,8.802,5.481,8.722,5.415,8.699z M12.068,18.627c0-0.261-0.007-0.521,0.003-0.782
	c0.007-0.213,0.008-0.398-0.283-0.414c-0.129-0.007-0.215-0.105-0.206-0.247c0.008-0.145,0.112-0.207,0.239-0.223
	c0.425-0.058,0.545-0.37,0.596-0.722c0.039-0.269,0.172-0.398,0.439-0.37c0.282,0.03,0.279,0.249,0.269,0.452
	c-0.019,0.361-0.031,0.694,0.495,0.631c0.118-0.014,0.243,0.053,0.256,0.199c0.014,0.173-0.116,0.294-0.25,0.28
	c-0.605-0.063-0.481,0.356-0.485,0.693c-0.003,0.261,0.01,0.521-0.003,0.782c-0.015,0.337,0.033,0.608,0.461,0.603
	c0.15-0.002,0.295,0.038,0.299,0.219c0.006,0.208-0.147,0.261-0.324,0.267c-0.04,0.002-0.08,0.004-0.121,0.002
	C11.888,19.984,12.082,20.182,12.068,18.627L12.068,18.627z M10.391,3.858c0,1.076,0,1.076-1.181,1.076
	c-1.016,0-1.019-0.003-1.019-1.185c0-1.019,0-1.019,1.18-1.018C10.38,2.732,10.391,2.746,10.391,3.858L10.391,3.858z M15.503,17.367
	c0.186-0.146,0.356-0.319,0.563-0.432c0.207-0.113,0.434-0.087,0.605,0.102c0.15,0.168,0.159,0.371,0.062,0.561
	c-0.11,0.208-0.291,0.25-0.513,0.163c-0.271-0.107-0.459,0.044-0.502,0.277c-0.101,0.534-0.305,1.09,0.118,1.593
	c0.178,0.208,0.084,0.338-0.156,0.357c-0.259,0.021-0.521,0.024-0.782,0.004c-0.335-0.025-0.879,0.237-0.431-0.578
	c0.27-0.49,0.406-1.323-0.226-1.879c-0.136-0.119-0.125-0.228-0.002-0.354C14.644,16.763,15.274,16.857,15.503,17.367z
	 M13.211,6.753c0.999,0,1.023,0.025,1.023,1.062c0,0.996-0.082,1.075-1.102,1.074c-0.93-0.001-1.044-0.121-1.044-1.088
	C12.091,6.813,12.155,6.752,13.211,6.753L13.211,6.753z M5.771,3.139c0.876,0,0.98,0.1,0.98,0.946
	C6.754,4.99,6.681,5.062,5.753,5.061C4.854,5.06,4.829,5.033,4.831,4.029C4.833,3.175,4.873,3.138,5.771,3.139z M3.632,9.272
	c0,0.875-0.013,0.887-0.913,0.886c-0.887,0-0.892-0.006-0.892-0.905c0-0.855,0.063-0.92,0.909-0.919
	C3.565,8.334,3.632,8.403,3.632,9.272z M7.609,6.77C7.443,6.73,7.371,6.862,7.275,6.951c-0.11-0.383-0.132-0.774-0.151-1.172
	c-0.033-0.647,0.353-0.706,0.84-0.703C8.439,5.079,8.83,5.108,8.819,5.764C8.804,6.751,8.832,6.751,7.609,6.77L7.609,6.77z
	 M11.988,5.831c-0.002,0.714-0.018,0.686-0.816,0.733c-0.639,0.037-0.729-0.266-0.707-0.793c0.032-0.747,0.022-0.76,0.794-0.756
	C11.979,5.018,11.99,5.032,11.988,5.831z M1.246,10.065c0.094,0.496-0.159,0.619-0.608,0.631C0.122,10.71,0.001,10.479,0,10.005
	c0-0.479,0.176-0.612,0.637-0.622c0.523-0.009,0.695,0.198,0.607,0.682H1.246z M13.858,10.618c-0.415,0.068-0.581-0.096-0.579-0.524
	c0.002-0.403,0.122-0.574,0.551-0.577c0.432-0.001,0.621,0.136,0.615,0.585C14.439,10.526,14.264,10.691,13.858,10.618
	L13.858,10.618z M5.327,9.739c0.088,0.453-0.165,0.517-0.547,0.527c-0.433,0.011-0.535-0.174-0.539-0.569
	C4.235,9.263,4.427,9.165,4.817,9.16C5.252,9.154,5.392,9.338,5.327,9.739z M10.179,8.067c-0.363,0.058-0.551-0.057-0.547-0.47
	c0.004-0.379,0.081-0.593,0.523-0.588c0.411,0.004,0.559,0.162,0.559,0.566C10.714,7.966,10.565,8.128,10.179,8.067z M11.813,3.47
	c0.041,0.358-0.092,0.531-0.467,0.521c-0.295-0.007-0.51-0.03-0.497-0.413c0.013-0.31,0.029-0.559,0.437-0.558
	c0.32,0.002,0.57,0.054,0.529,0.448L11.813,3.47z M6.073,9.869C6.019,9.874,5.966,9.878,5.911,9.884
	C5.749,9.728,5.717,9.513,5.655,9.313c-0.034-0.104-0.007-0.159,0.112-0.14C5.87,9.404,5.971,9.637,6.073,9.869z M5.768,9.172
	C5.729,9.22,5.692,9.266,5.656,9.313C5.507,9.135,5.461,8.916,5.415,8.699c0.066,0.024,0.134,0.049,0.2,0.072
	C5.666,8.905,5.717,9.039,5.768,9.172z M20.337,19.686c-0.349-0.317-0.205-0.704-0.244-1.032c0-1.276-0.318-1.698-1.322-1.768
	c-0.36-0.025-0.72-0.007-1.072,0.095c-0.217,0.063-0.43,0.125-0.512,0.366c-0.045,0.135,0.031,0.25,0.134,0.307
	c0.236,0.133,0.466,0.083,0.662-0.099c0.188-0.174,0.399-0.277,0.654-0.186c0.207,0.075,0.349,0.235,0.333,0.454
	c-0.02,0.255-0.247,0.128-0.381,0.145c-0.42,0.052-0.837,0.108-1.199,0.352c-0.623,0.42-0.592,1.28,0.067,1.624
	c0.438,0.229,0.883,0.221,1.325-0.016c0.099-0.053,0.163-0.253,0.339-0.076c0.299,0.3,0.684,0.106,1.028,0.135
	c0.188,0.016,0.353-0.152,0.187-0.302L20.337,19.686z M19.047,18.768c-0.072,0.356-0.143,0.735-0.607,0.769
	c-0.316,0.021-0.415-0.223-0.391-0.486c0.04-0.436,0.351-0.599,0.745-0.643C19.087,18.375,19.046,18.582,19.047,18.768z
	 M5.104,17.468c-0.099-0.041-0.194-0.084-0.344-0.149c0.143-0.092,0.25-0.134,0.318-0.211c0.183-0.201,0.422-0.391,0.509-0.632
	c0.224-0.6-0.177-1.162-0.889-1.285c-0.304-0.052-0.619-0.048-0.93-0.05c-0.688-0.006-1.379-0.008-2.066,0.004
	c-0.117,0.002-0.23,0.087-0.348,0.136c0.058,0.097,0.121,0.188,0.17,0.288c0.061,0.124,0.15,0.254,0.152,0.383
	c0.011,1.088,0.011,2.178,0,3.268c-0.002,0.121-0.079,0.243-0.136,0.357c-0.053,0.108-0.125,0.208-0.188,0.311
	c0.128,0.048,0.257,0.135,0.386,0.137c0.855,0.011,1.712,0.015,2.567,0c0.242-0.005,0.49-0.05,0.721-0.121
	c0.582-0.182,0.937-0.639,0.958-1.191c0.021-0.557-0.298-1.006-0.88-1.246H5.104z M2.903,15.893
	c0.006-0.106,0.159-0.289,0.249-0.292c0.314-0.013,0.649-0.017,0.941,0.082c0.389,0.131,0.446,0.682,0.131,1.042
	c-0.336,0.381-0.789,0.547-1.332,0.65C2.893,16.84,2.877,16.365,2.903,15.893L2.903,15.893z M4.383,19.298
	c-0.033,0.027-0.071,0.053-0.11,0.075c-0.268,0.152-0.716,0.294-1.021,0.239c-0.315-0.057-0.363-0.391-0.365-0.654
	c-0.003-0.1,0-0.2,0-0.3c0-0.766,0-0.766,0.748-0.952c0.407-0.101,0.787,0.097,0.988,0.517c0.183,0.375,0.072,0.827-0.237,1.075
	H4.383z"/>
</svg>
